<?xml version="1.0" encoding="UTF-8" standalone="no"?>
<!-- Created with Inkscape (http://www.inkscape.org/) -->

<svg
   width="129.24165mm"
   height="30.223177mm"
   viewBox="0 0 129.24165 30.223177"
   version="1.1"
   id="svg45173"
   xmlns:inkscape="http://www.inkscape.org/namespaces/inkscape"
   xmlns:sodipodi="http://sodipodi.sourceforge.net/DTD/sodipodi-0.dtd"
   xmlns="http://www.w3.org/2000/svg"
   xmlns:svg="http://www.w3.org/2000/svg">
  <sodipodi:namedview
     id="namedview45175"
     pagecolor="#ffffff"
     bordercolor="#000000"
     borderopacity="0.25"
     inkscape:showpageshadow="2"
     inkscape:pageopacity="0.0"
     inkscape:pagecheckerboard="true"
     inkscape:deskcolor="#d1d1d1"
     inkscape:document-units="mm"
     showgrid="false" />
  <defs
     id="defs45170">
    <clipPath
       clipPathUnits="userSpaceOnUse"
       id="clipPath26821">
      <g
         id="g26827">
        <g
           id="g26825">
          <path
             d="M 0,595.28 H 841.89 V 0 H 0 Z"
             id="path26823" />
        </g>
      </g>
    </clipPath>
    <clipPath
       clipPathUnits="userSpaceOnUse"
       id="clipPath27451">
      <g
         id="g27457">
        <g
           id="g27455">
          <path
             d="M 0,595.28 H 841.89 V 0 H 0 Z"
             id="path27453" />
        </g>
      </g>
    </clipPath>
    <clipPath
       clipPathUnits="userSpaceOnUse"
       id="clipPath26776">
      <g
         id="g26782">
        <g
           id="g26780">
          <path
             d="M 0,595.28 H 841.89 V 0 H 0 Z"
             id="path26778" />
        </g>
      </g>
    </clipPath>
    <clipPath
       clipPathUnits="userSpaceOnUse"
       id="clipPath27106">
      <g
         id="g27112">
        <g
           id="g27110">
          <path
             d="M 0,595.28 H 841.89 V 0 H 0 Z"
             id="path27108" />
        </g>
      </g>
    </clipPath>
    <clipPath
       clipPathUnits="userSpaceOnUse"
       id="clipPath27391">
      <g
         id="g27397">
        <g
           id="g27395">
          <path
             d="M 0,595.28 H 841.89 V 0 H 0 Z"
             id="path27393" />
        </g>
      </g>
    </clipPath>
    <clipPath
       clipPathUnits="userSpaceOnUse"
       id="clipPath27316">
      <g
         id="g27322">
        <g
           id="g27320">
          <path
             d="M 0,595.28 H 841.89 V 0 H 0 Z"
             id="path27318" />
        </g>
      </g>
    </clipPath>
    <clipPath
       clipPathUnits="userSpaceOnUse"
       id="clipPath26716">
      <g
         id="g26722">
        <g
           id="g26720">
          <path
             d="M 0,595.28 H 841.89 V 0 H 0 Z"
             id="path26718" />
        </g>
      </g>
    </clipPath>
    <clipPath
       clipPathUnits="userSpaceOnUse"
       id="clipPath26836">
      <g
         id="g26842">
        <g
           id="g26840">
          <path
             d="M 0,595.28 H 841.89 V 0 H 0 Z"
             id="path26838" />
        </g>
      </g>
    </clipPath>
    <clipPath
       clipPathUnits="userSpaceOnUse"
       id="clipPath27406">
      <g
         id="g27412">
        <g
           id="g27410">
          <path
             d="M 0,595.28 H 841.89 V 0 H 0 Z"
             id="path27408" />
        </g>
      </g>
    </clipPath>
    <clipPath
       clipPathUnits="userSpaceOnUse"
       id="clipPath27196">
      <g
         id="g27202">
        <g
           id="g27200">
          <path
             d="M 0,595.28 H 841.89 V 0 H 0 Z"
             id="path27198" />
        </g>
      </g>
    </clipPath>
    <clipPath
       clipPathUnits="userSpaceOnUse"
       id="clipPath27466">
      <g
         id="g27472">
        <g
           id="g27470">
          <path
             d="M 0,595.28 H 841.89 V 0 H 0 Z"
             id="path27468" />
        </g>
      </g>
    </clipPath>
    <clipPath
       clipPathUnits="userSpaceOnUse"
       id="clipPath26971">
      <g
         id="g26977">
        <g
           id="g26975">
          <path
             d="M 0,595.28 H 841.89 V 0 H 0 Z"
             id="path26973" />
        </g>
      </g>
    </clipPath>
    <clipPath
       clipPathUnits="userSpaceOnUse"
       id="clipPath27421">
      <g
         id="g27427">
        <g
           id="g27425">
          <path
             d="M 0,595.28 H 841.89 V 0 H 0 Z"
             id="path27423" />
        </g>
      </g>
    </clipPath>
    <clipPath
       clipPathUnits="userSpaceOnUse"
       id="clipPath27436">
      <g
         id="g27442">
        <g
           id="g27440">
          <path
             d="M 0,595.28 H 841.89 V 0 H 0 Z"
             id="path27438" />
        </g>
      </g>
    </clipPath>
    <clipPath
       clipPathUnits="userSpaceOnUse"
       id="clipPath27211">
      <g
         id="g27217">
        <g
           id="g27215">
          <path
             d="M 0,595.28 H 841.89 V 0 H 0 Z"
             id="path27213" />
        </g>
      </g>
    </clipPath>
    <clipPath
       clipPathUnits="userSpaceOnUse"
       id="clipPath27061">
      <g
         id="g27067">
        <g
           id="g27065">
          <path
             d="M 0,595.28 H 841.89 V 0 H 0 Z"
             id="path27063" />
        </g>
      </g>
    </clipPath>
    <clipPath
       clipPathUnits="userSpaceOnUse"
       id="clipPath26791">
      <g
         id="g26797">
        <g
           id="g26795">
          <path
             d="M 0,595.28 H 841.89 V 0 H 0 Z"
             id="path26793" />
        </g>
      </g>
    </clipPath>
    <clipPath
       clipPathUnits="userSpaceOnUse"
       id="clipPath26731">
      <g
         id="g26737">
        <g
           id="g26735">
          <path
             d="M 0,595.28 H 841.89 V 0 H 0 Z"
             id="path26733" />
        </g>
      </g>
    </clipPath>
    <clipPath
       clipPathUnits="userSpaceOnUse"
       id="clipPath27076">
      <g
         id="g27082">
        <g
           id="g27080">
          <path
             d="M 0,595.28 H 841.89 V 0 H 0 Z"
             id="path27078" />
        </g>
      </g>
    </clipPath>
    <clipPath
       clipPathUnits="userSpaceOnUse"
       id="clipPath26941">
      <g
         id="g26947">
        <g
           id="g26945">
          <path
             d="M 0,595.28 H 841.89 V 0 H 0 Z"
             id="path26943" />
        </g>
      </g>
    </clipPath>
    <clipPath
       clipPathUnits="userSpaceOnUse"
       id="clipPath27181">
      <g
         id="g27187">
        <g
           id="g27185">
          <path
             d="M 0,595.28 H 841.89 V 0 H 0 Z"
             id="path27183" />
        </g>
      </g>
    </clipPath>
    <clipPath
       clipPathUnits="userSpaceOnUse"
       id="clipPath26881">
      <g
         id="g26887">
        <g
           id="g26885">
          <path
             d="M 0,595.28 H 841.89 V 0 H 0 Z"
             id="path26883" />
        </g>
      </g>
    </clipPath>
    <clipPath
       clipPathUnits="userSpaceOnUse"
       id="clipPath27016">
      <g
         id="g27022">
        <g
           id="g27020">
          <path
             d="M 0,595.28 H 841.89 V 0 H 0 Z"
             id="path27018" />
        </g>
      </g>
    </clipPath>
    <clipPath
       clipPathUnits="userSpaceOnUse"
       id="clipPath27481">
      <g
         id="g27487">
        <g
           id="g27485">
          <path
             d="M 0,595.28 H 841.89 V 0 H 0 Z"
             id="path27483" />
        </g>
      </g>
    </clipPath>
    <clipPath
       clipPathUnits="userSpaceOnUse"
       id="clipPath27226">
      <g
         id="g27232">
        <g
           id="g27230">
          <path
             d="M 0,595.28 H 841.89 V 0 H 0 Z"
             id="path27228" />
        </g>
      </g>
    </clipPath>
    <clipPath
       clipPathUnits="userSpaceOnUse"
       id="clipPath26746">
      <g
         id="g26752">
        <g
           id="g26750">
          <path
             d="M 0,595.28 H 841.89 V 0 H 0 Z"
             id="path26748" />
        </g>
      </g>
    </clipPath>
    <clipPath
       clipPathUnits="userSpaceOnUse"
       id="clipPath27496">
      <g
         id="g27502">
        <g
           id="g27500">
          <path
             d="M 0,595.28 H 841.89 V 0 H 0 Z"
             id="path27498" />
        </g>
      </g>
    </clipPath>
    <clipPath
       clipPathUnits="userSpaceOnUse"
       id="clipPath27286">
      <g
         id="g27292">
        <g
           id="g27290">
          <path
             d="M 0,595.28 H 841.89 V 0 H 0 Z"
             id="path27288" />
        </g>
      </g>
    </clipPath>
    <clipPath
       clipPathUnits="userSpaceOnUse"
       id="clipPath26761">
      <g
         id="g26767">
        <g
           id="g26765">
          <path
             d="M 0,595.28 H 841.89 V 0 H 0 Z"
             id="path26763" />
        </g>
      </g>
    </clipPath>
    <clipPath
       clipPathUnits="userSpaceOnUse"
       id="clipPath27136">
      <g
         id="g27142">
        <g
           id="g27140">
          <path
             d="M 0,595.28 H 841.89 V 0 H 0 Z"
             id="path27138" />
        </g>
      </g>
    </clipPath>
    <clipPath
       clipPathUnits="userSpaceOnUse"
       id="clipPath27511">
      <g
         id="g27517">
        <g
           id="g27515">
          <path
             d="M 0,595.28 H 841.89 V 0 H 0 Z"
             id="path27513" />
        </g>
      </g>
    </clipPath>
    <clipPath
       clipPathUnits="userSpaceOnUse"
       id="clipPath27091">
      <g
         id="g27097">
        <g
           id="g27095">
          <path
             d="M 0,595.28 H 841.89 V 0 H 0 Z"
             id="path27093" />
        </g>
      </g>
    </clipPath>
    <clipPath
       clipPathUnits="userSpaceOnUse"
       id="clipPath27241">
      <g
         id="g27247">
        <g
           id="g27245">
          <path
             d="M 0,595.28 H 841.89 V 0 H 0 Z"
             id="path27243" />
        </g>
      </g>
    </clipPath>
  </defs>
  <g
     inkscape:label="Layer 1"
     inkscape:groupmode="layer"
     id="layer1"
     transform="translate(-31.393649,-61.914945)">
    <path
       d="m 434.4575,238.5708 c -0.762,0 -1.079,0.14 -1.213,0.253 -0.186,0.171 -0.306,0.43 -0.354,0.766 -0.046,0.37 -0.072,1.272 -0.072,2.678 v 3.163 c 1.995,0.084 3.343,-0.193 4.055,-0.818 0.622,-0.548 0.939,-1.422 0.939,-2.599 0,-1.152 -0.282,-2.023 -0.834,-2.59 -0.55,-0.564 -1.399,-0.853 -2.521,-0.853 m 1.782,8.445 c -0.543,-0.47 -1.598,-0.708 -3.136,-0.708 -0.086,0 -0.18,0 -0.285,0.004 v 5.942 c 0.24,0.014 0.475,0.021 0.704,0.021 1.068,0 1.828,-0.109 2.256,-0.329 0.422,-0.214 0.742,-0.521 0.95,-0.914 0.212,-0.398 0.322,-0.978 0.322,-1.724 0,-1.059 -0.271,-1.83 -0.811,-2.292 m 3.002,-2.219 c -0.655,0.573 -1.585,0.97 -2.772,1.178 0.907,0.233 1.631,0.571 2.162,1.011 0.737,0.623 1.114,1.454 1.114,2.475 0,2.463 -2.124,3.71 -6.318,3.71 l -5.433,-0.159 v -0.86 h 0.461 c 0.902,0 1.249,-0.094 1.382,-0.173 0.182,-0.107 0.302,-0.305 0.362,-0.608 0.064,-0.343 0.099,-1.124 0.099,-2.315 v -7.282 c 0,-1.233 -0.035,-2.028 -0.097,-2.357 -0.054,-0.294 -0.184,-0.506 -0.389,-0.641 -0.149,-0.098 -0.484,-0.212 -1.237,-0.212 h -0.749 v -0.862 h 6.048 c 1.47,0 2.662,0.104 3.543,0.317 0.906,0.219 1.661,0.69 2.242,1.393 0.584,0.711 0.881,1.569 0.881,2.548 0,1.129 -0.437,2.084 -1.299,2.837"
       style="fill:#382f2d;fill-opacity:1;fill-rule:nonzero;stroke:none"
       id="path2646"
       clip-path="url(#clipPath26821)"
       transform="matrix(0.35277777,0,0,-0.35277777,-52.410404,174.03153)" />
    <path
       d="m 448.1079,247.4551 c -0.576,0 -1.167,-0.233 -1.756,-0.7 -0.397,-0.31 -0.72,-0.674 -0.969,-1.084 -0.054,0.661 -0.163,1.219 -0.331,1.669 l -0.057,0.159 -0.16,-0.051 c -1.103,-0.35 -2.003,-0.567 -2.682,-0.644 l -0.159,-0.021 v -0.829 h 0.41 c 0.537,0 0.774,-0.094 0.875,-0.171 0.146,-0.105 0.224,-0.251 0.245,-0.448 0.027,-0.239 0.037,-0.848 0.037,-1.809 v -2.55 c 0,-1.031 -0.015,-1.657 -0.055,-1.864 -0.023,-0.173 -0.108,-0.302 -0.252,-0.395 -0.107,-0.07 -0.346,-0.153 -0.85,-0.153 h -0.41 v -0.862 h 5.155 v 0.862 h -0.482 c -0.539,0 -0.776,0.088 -0.881,0.165 -0.14,0.1 -0.222,0.245 -0.243,0.445 -0.024,0.242 -0.038,0.852 -0.038,1.802 v 1.614 c 0,0.79 0.063,1.414 0.183,1.86 0.115,0.431 0.388,0.855 0.8,1.26 0.406,0.397 0.749,0.596 1.015,0.596 0.066,0 0.272,0 0.425,-0.434 0.219,-0.619 0.559,-0.933 1.008,-0.933 0.257,0 0.479,0.096 0.655,0.287 0.175,0.189 0.263,0.413 0.263,0.674 0,0.358 -0.157,0.71 -0.469,1.046 -0.311,0.338 -0.741,0.509 -1.277,0.509"
       style="fill:#382f2d;fill-opacity:1;fill-rule:nonzero;stroke:none"
       id="path2650"
       clip-path="url(#clipPath27451)"
       transform="matrix(0.35277777,0,0,-0.35277777,-52.410404,174.03153)" />
    <path
       d="m 456.5493,244.4756 h -3.957 c 0.273,1.441 0.991,2.137 2.182,2.137 0.513,0 0.927,-0.158 1.275,-0.485 0.345,-0.326 0.512,-0.776 0.512,-1.377 0,-0.082 -0.002,-0.173 -0.012,-0.275 m 1.4,-4.495 c -0.537,-1.14 -1.414,-1.694 -2.689,-1.694 -0.926,0 -1.607,0.363 -2.073,1.113 -0.475,0.765 -0.718,1.938 -0.718,3.486 0,0.182 0.01,0.443 0.035,0.792 h 6.32 l -0.009,0.187 c -0.039,0.877 -0.399,1.704 -1.076,2.45 -0.676,0.755 -1.645,1.14 -2.874,1.14 -1.307,0 -2.41,-0.497 -3.279,-1.475 -0.865,-0.975 -1.303,-2.213 -1.303,-3.679 0,-1.037 0.23,-1.932 0.677,-2.665 0.449,-0.724 1.032,-1.301 1.736,-1.696 0.707,-0.401 1.461,-0.602 2.254,-0.602 0.852,0 1.654,0.221 2.375,0.66 0.735,0.44 1.237,1.067 1.48,1.857 l 0.072,0.229 h -0.885 z"
       style="fill:#382f2d;fill-opacity:1;fill-rule:nonzero;stroke:none"
       id="path2654"
       clip-path="url(#clipPath26776)"
       transform="matrix(0.35277777,0,0,-0.35277777,-52.410404,174.03153)" />
    <path
       d="m 471.7896,246.2354 0.172,-0.007 c 0.43,-0.016 0.944,-0.1 0.944,-0.408 0,-0.03 -0.023,-0.189 -0.312,-0.916 l -1.815,-4.7 -2.594,6.889 h -0.675 l -2.68,-6.889 -1.666,4.414 c -0.376,0.936 -0.418,1.17 -0.418,1.226 0,0.137 0.044,0.221 0.153,0.277 0.101,0.049 0.328,0.107 0.873,0.107 h 0.173 v 0.865 h -4.48 v -0.865 h 0.179 c 0.511,0 0.717,-0.1 0.799,-0.187 0.093,-0.099 0.284,-0.424 0.669,-1.41 l 2.8,-7.285 h 0.73 l 2.623,6.849 2.573,-6.849 h 0.741 l 2.858,7.285 0.242,0.644 c 0.19,0.507 0.371,0.704 0.488,0.778 0.171,0.11 0.422,0.168 0.738,0.175 l 0.174,0.005 v 0.86 h -3.289 z"
       style="fill:#382f2d;fill-opacity:1;fill-rule:nonzero;stroke:none"
       id="path2658"
       clip-path="url(#clipPath27106)"
       transform="matrix(0.35277777,0,0,-0.35277777,-52.410404,174.03153)" />
    <path
       d="m 479.4302,238.729 c -0.146,0.1 -0.226,0.248 -0.249,0.45 -0.027,0.24 -0.042,0.849 -0.042,1.798 v 6.478 h -0.421 l -0.059,-0.01 c -0.705,-0.249 -1.714,-0.445 -3.003,-0.576 l -0.158,-0.016 v -0.844 h 0.475 c 0.483,0 0.703,-0.044 0.803,-0.079 0.119,-0.042 0.216,-0.156 0.296,-0.343 0.061,-0.147 0.133,-0.59 0.133,-1.872 v -2.738 c 0,-0.997 -0.011,-1.604 -0.037,-1.803 -0.023,-0.169 -0.092,-0.312 -0.223,-0.433 -0.066,-0.07 -0.278,-0.177 -0.897,-0.177 h -0.55 v -0.862 h 5.216 v 0.862 h -0.407 c -0.536,0 -0.775,0.088 -0.877,0.165"
       style="fill:#382f2d;fill-opacity:1;fill-rule:nonzero;stroke:none"
       id="path2662"
       clip-path="url(#clipPath27391)"
       transform="matrix(0.35277777,0,0,-0.35277777,-52.410404,174.03153)" />
    <path
       d="m 477.978,250.543 c 0.365,0 0.681,0.133 0.934,0.396 0.253,0.261 0.38,0.581 0.38,0.952 0,0.361 -0.127,0.675 -0.38,0.939 -0.253,0.263 -0.569,0.396 -0.934,0.396 -0.364,0 -0.679,-0.133 -0.937,-0.396 -0.255,-0.261 -0.387,-0.578 -0.387,-0.939 0,-0.371 0.132,-0.691 0.387,-0.954 0.258,-0.263 0.573,-0.394 0.937,-0.394"
       style="fill:#382f2d;fill-opacity:1;fill-rule:nonzero;stroke:none"
       id="path2666"
       clip-path="url(#clipPath27316)"
       transform="matrix(0.35277777,0,0,-0.35277777,-52.410404,174.03153)" />
    <path
       d="m 491.1606,238.7104 c -0.144,0.087 -0.233,0.211 -0.263,0.387 -0.033,0.215 -0.052,0.848 -0.052,1.879 v 2.825 c 0,0.867 -0.066,1.508 -0.205,1.965 -0.141,0.478 -0.468,0.884 -0.961,1.208 -0.485,0.319 -1.115,0.481 -1.868,0.481 -0.659,0 -1.3,-0.162 -1.902,-0.486 -0.493,-0.259 -0.97,-0.634 -1.429,-1.114 -0.043,0.601 -0.132,1.1 -0.272,1.484 l -0.045,0.116 h -0.424 l -0.049,-0.008 c -0.834,-0.246 -1.656,-0.413 -2.452,-0.501 l -0.159,-0.017 v -0.845 h 0.177 c 0.618,0 0.883,-0.077 1.002,-0.145 0.145,-0.089 0.233,-0.215 0.265,-0.385 0.024,-0.149 0.057,-0.594 0.057,-1.886 v -2.692 c 0,-1.352 -0.035,-1.798 -0.066,-1.93 -0.039,-0.156 -0.128,-0.271 -0.278,-0.35 -0.119,-0.061 -0.386,-0.132 -0.98,-0.132 h -0.177 v -0.863 h 4.924 v 0.863 h -0.175 c -0.619,0 -0.883,0.076 -0.998,0.146 -0.153,0.087 -0.239,0.216 -0.269,0.387 -0.024,0.152 -0.057,0.599 -0.057,1.879 v 3.631 c 0.408,0.598 0.847,1.047 1.302,1.346 0.459,0.3 0.944,0.452 1.443,0.452 0.427,0 0.784,-0.108 1.057,-0.317 0.274,-0.21 0.433,-0.442 0.495,-0.709 0.066,-0.289 0.101,-0.79 0.101,-1.489 v -2.914 c 0,-0.996 -0.01,-1.599 -0.031,-1.802 -0.018,-0.165 -0.087,-0.303 -0.224,-0.431 -0.071,-0.066 -0.282,-0.179 -0.912,-0.179 h -0.388 v -0.863 h 4.978 v 0.863 h -0.177 c -0.609,0 -0.873,0.076 -0.988,0.146"
       style="fill:#382f2d;fill-opacity:1;fill-rule:nonzero;stroke:none"
       id="path2670"
       clip-path="url(#clipPath26716)"
       transform="matrix(0.35277777,0,0,-0.35277777,-52.410404,174.03153)" />
    <path
       d="m 499.4644,243.8994 c 0,-1.028 -0.187,-1.755 -0.556,-2.159 -0.368,-0.401 -0.794,-0.596 -1.305,-0.596 -0.56,0 -0.999,0.195 -1.362,0.601 -0.355,0.406 -0.536,1.068 -0.536,1.97 0,0.979 0.159,1.718 0.479,2.196 0.304,0.456 0.752,0.68 1.373,0.68 0.493,0 0.925,-0.184 1.322,-0.568 0.387,-0.373 0.585,-1.089 0.585,-2.124 m 2.923,3.457 c -0.642,0 -1.285,-0.332 -1.902,-0.981 -0.756,0.718 -1.749,1.08 -2.95,1.08 -1.037,0 -1.943,-0.339 -2.695,-1.011 -0.763,-0.678 -1.147,-1.51 -1.147,-2.475 0,-0.69 0.188,-1.32 0.559,-1.876 0.304,-0.455 0.73,-0.868 1.273,-1.234 -1.158,-0.314 -1.746,-0.953 -1.746,-1.899 0,-0.56 0.267,-1.024 0.789,-1.372 0.503,-0.349 1.54,-0.547 3.167,-0.617 1.346,-0.058 2.284,-0.226 2.792,-0.508 0.481,-0.268 0.712,-0.725 0.712,-1.398 0,-0.614 -0.27,-1.108 -0.824,-1.506 -0.566,-0.406 -1.377,-0.611 -2.407,-0.611 -1.163,0 -2.042,0.202 -2.618,0.601 -0.56,0.392 -0.832,0.87 -0.832,1.459 0,0.511 0.212,1.002 0.635,1.469 l 0.175,0.192 -0.243,0.092 c -0.112,0.047 -0.245,0.068 -0.381,0.068 -0.488,0 -0.873,-0.165 -1.143,-0.494 -0.263,-0.317 -0.391,-0.728 -0.391,-1.214 0,-0.873 0.442,-1.597 1.315,-2.159 0.851,-0.548 1.987,-0.823 3.381,-0.823 1.529,0 2.719,0.312 3.541,0.93 0.838,0.627 1.263,1.466 1.263,2.49 0,0.729 -0.212,1.365 -0.623,1.897 -0.414,0.532 -0.972,0.888 -1.662,1.063 -0.661,0.168 -1.618,0.282 -2.838,0.34 -1.089,0.061 -1.807,0.145 -2.139,0.262 -0.363,0.11 -0.404,0.278 -0.404,0.401 0,0.578 1.176,0.739 2.166,0.771 1.54,0.051 2.656,0.445 3.321,1.158 0.665,0.709 0.998,1.539 0.998,2.46 0,0.666 -0.176,1.3 -0.531,1.9 0.269,0.277 0.504,0.417 0.706,0.417 0.106,0 0.234,-0.117 0.356,-0.33 0.211,-0.358 0.468,-0.54 0.78,-0.54 0.545,0 0.842,0.32 0.842,0.905 0,0.275 -0.116,0.531 -0.348,0.755 -0.227,0.224 -0.547,0.338 -0.947,0.338"
       style="fill:#382f2d;fill-opacity:1;fill-rule:nonzero;stroke:none"
       id="path2674"
       clip-path="url(#clipPath26836)"
       transform="matrix(0.35277777,0,0,-0.35277777,-52.410404,174.03153)" />
    <path
       d="m 518.8706,252.1514 h 0.579 c 0.897,0 1.245,-0.094 1.379,-0.172 0.181,-0.107 0.298,-0.301 0.352,-0.597 0.06,-0.335 0.095,-1.098 0.095,-2.273 v -2.79 h -7.456 v 2.79 c 0,1.222 0.037,2.005 0.112,2.32 0.065,0.282 0.188,0.466 0.369,0.564 0.137,0.072 0.486,0.158 1.347,0.158 h 0.459 v 0.865 h -7.087 v -0.865 h 0.452 c 0.9,0 1.249,-0.094 1.382,-0.172 0.182,-0.107 0.3,-0.301 0.359,-0.599 0.067,-0.333 0.102,-1.096 0.102,-2.271 v -7.336 c 0,-1.235 -0.035,-2.028 -0.102,-2.354 -0.059,-0.296 -0.191,-0.508 -0.4,-0.644 -0.147,-0.098 -0.479,-0.211 -1.234,-0.211 h -0.559 v -0.863 h 7.087 v 0.863 h -0.568 c -0.779,0 -1.112,0.123 -1.256,0.228 -0.202,0.149 -0.325,0.38 -0.375,0.694 -0.058,0.352 -0.088,1.122 -0.088,2.287 v 3.427 h 7.456 v -3.427 c 0,-1.232 -0.035,-2.026 -0.095,-2.357 -0.058,-0.293 -0.185,-0.505 -0.391,-0.641 -0.151,-0.098 -0.482,-0.211 -1.223,-0.211 h -0.696 v -0.863 h 7.164 v 0.863 h -0.519 c -0.784,0 -1.121,0.123 -1.268,0.228 -0.2,0.149 -0.327,0.375 -0.374,0.694 -0.054,0.357 -0.081,1.124 -0.081,2.287 v 7.336 c 0,1.222 0.039,2.005 0.112,2.32 0.069,0.282 0.189,0.466 0.37,0.564 0.136,0.072 0.488,0.158 1.361,0.158 h 0.399 v 0.865 h -7.164 z"
       style="fill:#382f2d;fill-opacity:1;fill-rule:nonzero;stroke:none"
       id="path2678"
       clip-path="url(#clipPath27406)"
       transform="matrix(0.35277777,0,0,-0.35277777,-52.410404,174.03153)" />
    <path
       d="m 533.3052,243.1304 v -3.227 c -0.528,-0.417 -1.011,-0.738 -1.437,-0.95 -0.886,-0.446 -1.532,-0.434 -1.937,0.04 -0.212,0.249 -0.32,0.582 -0.32,1.004 0,1.081 0.922,2.009 2.734,2.745 z m 3.201,-3.569 c -0.149,-0.933 -0.585,-0.933 -0.729,-0.933 -0.284,0 -0.364,0.131 -0.407,0.245 -0.056,0.157 -0.122,0.555 -0.122,1.586 v 3.652 c 0,0.805 -0.086,1.392 -0.262,1.791 -0.181,0.41 -0.551,0.775 -1.097,1.088 -0.539,0.308 -1.299,0.465 -2.26,0.465 -1.293,0 -2.265,-0.257 -2.891,-0.763 -0.65,-0.52 -0.961,-1.007 -0.961,-1.487 0,-0.529 0.301,-0.818 0.849,-0.818 0.412,0 0.938,0.221 1.101,1.272 0.115,0.644 0.657,0.953 1.667,0.953 0.515,0 0.933,-0.1 1.24,-0.3 0.302,-0.194 0.488,-0.414 0.555,-0.651 0.078,-0.263 0.116,-0.701 0.116,-1.307 v -0.322 l -1.602,-0.65 c -1.309,-0.541 -2.351,-1.105 -3.1,-1.679 -0.783,-0.598 -1.176,-1.317 -1.176,-2.128 0,-0.634 0.244,-1.152 0.725,-1.539 0.837,-0.669 1.947,-0.783 3.387,-0.158 0.557,0.243 1.167,0.594 1.827,1.048 0.109,-0.433 0.297,-0.771 0.564,-1.016 0.324,-0.295 0.762,-0.443 1.305,-0.443 1.259,0 1.96,0.711 2.034,2.057 l 0.012,0.183 h -0.751 z"
       style="fill:#382f2d;fill-opacity:1;fill-rule:nonzero;stroke:none"
       id="path2682"
       clip-path="url(#clipPath27196)"
       transform="matrix(0.35277777,0,0,-0.35277777,-52.410404,174.03153)" />
    <path
       d="m 546.3032,242.5898 c 0,-1.511 -0.295,-2.619 -0.883,-3.294 -0.589,-0.679 -1.256,-1.009 -2.039,-1.009 -0.459,0 -0.902,0.116 -1.321,0.349 -0.406,0.224 -0.803,0.561 -1.17,1.003 v 5.37 c 0.383,0.478 0.791,0.84 1.213,1.078 0.424,0.239 0.881,0.363 1.355,0.363 0.779,0 1.432,-0.31 1.995,-0.944 0.563,-0.634 0.85,-1.616 0.85,-2.916 m -2.356,4.865 c -0.63,0 -1.232,-0.131 -1.791,-0.385 -0.448,-0.206 -0.875,-0.497 -1.274,-0.865 -0.027,0.425 -0.092,0.799 -0.191,1.126 l -0.036,0.124 h -0.428 l -0.045,-0.007 c -1.099,-0.29 -2.019,-0.474 -2.733,-0.544 l -0.161,-0.018 v -0.844 h 0.509 c 0.539,0 0.775,-0.091 0.877,-0.165 0.147,-0.103 0.224,-0.25 0.245,-0.448 0.026,-0.242 0.037,-0.851 0.037,-1.804 v -8.208 c 0,-0.995 -0.011,-1.603 -0.037,-1.802 -0.021,-0.171 -0.095,-0.315 -0.22,-0.436 -0.069,-0.065 -0.281,-0.177 -0.902,-0.177 h -0.509 v -0.863 h 5.079 v 0.863 h -0.178 c -0.605,0 -0.867,0.079 -0.979,0.147 -0.143,0.086 -0.231,0.214 -0.264,0.388 -0.036,0.22 -0.056,0.849 -0.056,1.88 v 3.033 c 0.379,-0.326 0.785,-0.581 1.199,-0.765 0.533,-0.233 1.099,-0.347 1.677,-0.347 1.408,0 2.562,0.496 3.429,1.482 0.859,0.977 1.296,2.208 1.296,3.658 0,1.483 -0.437,2.695 -1.294,3.604 -0.863,0.911 -1.957,1.373 -3.25,1.373"
       style="fill:#382f2d;fill-opacity:1;fill-rule:nonzero;stroke:none"
       id="path2686"
       clip-path="url(#clipPath27466)"
       transform="matrix(0.35277777,0,0,-0.35277777,-52.410404,174.03153)" />
    <path
       d="m 558.186,242.5898 c 0,-1.511 -0.294,-2.619 -0.879,-3.294 -0.592,-0.679 -1.255,-1.009 -2.038,-1.009 -0.463,0 -0.908,0.116 -1.323,0.349 -0.412,0.224 -0.803,0.561 -1.17,1.003 v 5.37 c 0.381,0.478 0.787,0.84 1.209,1.078 0.428,0.239 0.883,0.363 1.359,0.363 0.779,0 1.426,-0.31 1.993,-0.944 0.569,-0.634 0.849,-1.616 0.849,-2.916 m -2.357,4.865 c -0.622,0 -1.229,-0.131 -1.791,-0.385 -0.448,-0.206 -0.875,-0.497 -1.276,-0.865 -0.021,0.425 -0.082,0.799 -0.184,1.126 l -0.039,0.124 h -0.426 l -0.047,-0.007 c -1.101,-0.29 -2.017,-0.474 -2.731,-0.544 l -0.159,-0.018 v -0.844 h 0.507 c 0.537,0 0.774,-0.091 0.878,-0.165 0.142,-0.103 0.22,-0.25 0.24,-0.448 0.026,-0.242 0.041,-0.851 0.041,-1.804 v -8.208 c 0,-0.995 -0.015,-1.603 -0.041,-1.802 -0.02,-0.171 -0.093,-0.315 -0.219,-0.436 -0.068,-0.065 -0.28,-0.177 -0.899,-0.177 h -0.507 v -0.863 h 5.075 v 0.863 h -0.178 c -0.605,0 -0.866,0.079 -0.979,0.147 -0.145,0.086 -0.231,0.214 -0.264,0.388 -0.037,0.22 -0.054,0.849 -0.054,1.88 v 3.033 c 0.377,-0.326 0.783,-0.581 1.199,-0.765 0.533,-0.233 1.095,-0.347 1.677,-0.347 1.408,0 2.562,0.496 3.427,1.482 0.861,0.977 1.298,2.208 1.298,3.658 0,1.483 -0.437,2.695 -1.296,3.604 -0.865,0.911 -1.959,1.373 -3.252,1.373"
       style="fill:#382f2d;fill-opacity:1;fill-rule:nonzero;stroke:none"
       id="path2690"
       clip-path="url(#clipPath26971)"
       transform="matrix(0.35277777,0,0,-0.35277777,-52.410404,174.03153)" />
    <path
       d="m 563.8657,250.543 c 0.364,0 0.675,0.133 0.93,0.396 0.257,0.261 0.381,0.581 0.381,0.952 0,0.361 -0.124,0.675 -0.381,0.939 -0.255,0.263 -0.57,0.396 -0.93,0.396 -0.367,0 -0.683,-0.133 -0.941,-0.396 -0.254,-0.261 -0.387,-0.576 -0.387,-0.939 0,-0.371 0.133,-0.693 0.387,-0.954 0.258,-0.263 0.574,-0.394 0.941,-0.394"
       style="fill:#382f2d;fill-opacity:1;fill-rule:nonzero;stroke:none"
       id="path2694"
       clip-path="url(#clipPath27421)"
       transform="matrix(0.35277777,0,0,-0.35277777,-52.410404,174.03153)" />
    <path
       d="m 565.313,238.729 c -0.145,0.1 -0.226,0.248 -0.247,0.45 -0.029,0.24 -0.043,0.847 -0.043,1.798 v 6.478 h -0.42 l -0.062,-0.01 c -0.703,-0.249 -1.709,-0.445 -3.002,-0.576 l -0.161,-0.016 v -0.844 h 0.475 c 0.484,0 0.71,-0.044 0.812,-0.079 0.112,-0.042 0.211,-0.156 0.291,-0.343 0.06,-0.147 0.132,-0.59 0.132,-1.872 v -2.738 c 0,-1.238 -0.019,-1.665 -0.033,-1.803 -0.021,-0.169 -0.094,-0.312 -0.223,-0.433 -0.071,-0.07 -0.279,-0.177 -0.899,-0.177 h -0.555 v -0.862 h 5.222 v 0.862 h -0.41 c -0.535,0 -0.773,0.088 -0.877,0.165"
       style="fill:#382f2d;fill-opacity:1;fill-rule:nonzero;stroke:none"
       id="path2698"
       clip-path="url(#clipPath27436)"
       transform="matrix(0.35277777,0,0,-0.35277777,-52.410404,174.03153)" />
    <path
       d="m 577.4985,238.7104 c -0.15,0.087 -0.233,0.211 -0.265,0.387 -0.031,0.215 -0.05,0.85 -0.05,1.879 v 2.825 c 0,0.867 -0.069,1.508 -0.205,1.965 -0.145,0.478 -0.466,0.884 -0.962,1.208 -0.489,0.319 -1.117,0.481 -1.866,0.481 -0.661,0 -1.304,-0.162 -1.907,-0.486 -0.49,-0.261 -0.969,-0.637 -1.424,-1.114 -0.04,0.601 -0.137,1.1 -0.275,1.484 l -0.047,0.116 h -0.42 l -0.053,-0.008 c -0.828,-0.246 -1.653,-0.413 -2.448,-0.501 l -0.162,-0.017 v -0.845 h 0.18 c 0.618,0 0.883,-0.077 0.997,-0.145 0.15,-0.089 0.237,-0.215 0.27,-0.388 0.037,-0.212 0.057,-0.842 0.057,-1.883 v -2.692 c 0,-1.35 -0.035,-1.792 -0.066,-1.93 -0.04,-0.162 -0.126,-0.271 -0.283,-0.35 -0.114,-0.061 -0.379,-0.132 -0.975,-0.132 h -0.18 v -0.863 h 4.925 v 0.863 h -0.176 c -0.62,0 -0.885,0.076 -0.997,0.146 -0.15,0.087 -0.235,0.216 -0.267,0.387 -0.039,0.219 -0.06,0.85 -0.06,1.879 v 3.631 c 0.408,0.596 0.849,1.047 1.303,1.346 0.457,0.3 0.945,0.452 1.443,0.452 0.43,0 0.786,-0.108 1.056,-0.317 0.27,-0.208 0.439,-0.448 0.498,-0.709 0.064,-0.289 0.101,-0.792 0.101,-1.489 v -2.914 c 0,-0.996 -0.012,-1.604 -0.031,-1.802 -0.02,-0.165 -0.092,-0.303 -0.222,-0.431 -0.072,-0.066 -0.288,-0.179 -0.918,-0.179 h -0.384 v -0.863 h 4.973 v 0.863 h -0.175 c -0.604,0 -0.871,0.076 -0.985,0.146"
       style="fill:#382f2d;fill-opacity:1;fill-rule:nonzero;stroke:none"
       id="path2702"
       clip-path="url(#clipPath27211)"
       transform="matrix(0.35277777,0,0,-0.35277777,-52.410404,174.03153)" />
    <path
       d="m 586.0181,244.4756 h -3.954 c 0.276,1.441 0.984,2.137 2.186,2.137 0.505,0 0.921,-0.158 1.272,-0.485 0.34,-0.326 0.51,-0.776 0.51,-1.377 0,-0.082 -0.002,-0.173 -0.014,-0.275 m 1.401,-4.495 c -0.534,-1.14 -1.415,-1.694 -2.687,-1.694 -0.929,0 -1.606,0.363 -2.072,1.113 -0.475,0.765 -0.718,1.938 -0.718,3.486 0,0.182 0.014,0.447 0.035,0.792 h 6.318 l -0.007,0.187 c -0.041,0.877 -0.406,1.704 -1.073,2.45 -0.68,0.755 -1.648,1.14 -2.882,1.14 -1.3,0 -2.405,-0.497 -3.274,-1.475 -0.865,-0.977 -1.305,-2.213 -1.305,-3.679 0,-1.037 0.228,-1.932 0.677,-2.665 0.449,-0.724 1.032,-1.301 1.736,-1.696 0.705,-0.401 1.462,-0.602 2.258,-0.602 0.85,0 1.649,0.221 2.376,0.66 0.734,0.44 1.23,1.067 1.477,1.857 l 0.071,0.229 h -0.885 z"
       style="fill:#382f2d;fill-opacity:1;fill-rule:nonzero;stroke:none"
       id="path2706"
       clip-path="url(#clipPath27061)"
       transform="matrix(0.35277777,0,0,-0.35277777,-52.410404,174.03153)" />
    <path
       d="m 593.2251,243.5547 c -0.808,0.366 -1.357,0.692 -1.638,0.973 -0.268,0.253 -0.398,0.547 -0.398,0.897 0,0.315 0.116,0.585 0.355,0.822 0.242,0.241 0.551,0.359 0.946,0.359 0.525,0 0.97,-0.219 1.361,-0.664 0.402,-0.457 0.677,-1.014 0.814,-1.648 l 0.032,-0.14 h 0.725 v 3.147 h -0.702 l -0.045,-0.109 c -0.12,-0.293 -0.212,-0.474 -0.278,-0.586 -0.523,0.564 -1.176,0.849 -1.939,0.849 -0.826,0 -1.479,-0.296 -1.938,-0.877 -0.447,-0.57 -0.677,-1.182 -0.677,-1.815 0,-0.67 0.214,-1.24 0.64,-1.697 0.412,-0.45 1.087,-0.909 2.018,-1.362 0.844,-0.42 1.419,-0.774 1.705,-1.061 0.259,-0.267 0.39,-0.606 0.39,-1.032 0,-0.368 -0.123,-0.695 -0.372,-1.003 -0.243,-0.298 -0.606,-0.445 -1.116,-0.445 -1.211,0 -2.029,0.802 -2.511,2.445 l -0.039,0.131 h -0.74 v -3.327 h 0.74 l 0.039,0.126 c 0.092,0.299 0.2,0.543 0.333,0.735 0.646,-0.623 1.383,-0.935 2.201,-0.935 0.826,0 1.529,0.263 2.079,0.786 0.554,0.523 0.834,1.214 0.834,2.048 0,0.527 -0.149,1.08 -0.441,1.652 -0.298,0.575 -1.079,1.143 -2.378,1.731"
       style="fill:#382f2d;fill-opacity:1;fill-rule:nonzero;stroke:none"
       id="path2710"
       clip-path="url(#clipPath26791)"
       transform="matrix(0.35277777,0,0,-0.35277777,-52.410404,174.03153)" />
    <path
       d="m 603.2515,241.8232 c -0.304,0.575 -1.079,1.143 -2.38,1.731 -0.804,0.367 -1.357,0.692 -1.638,0.973 -0.268,0.253 -0.396,0.547 -0.396,0.897 0,0.315 0.116,0.585 0.355,0.823 0.242,0.24 0.551,0.358 0.948,0.358 0.524,0 0.967,-0.219 1.361,-0.663 0.398,-0.458 0.675,-1.015 0.816,-1.649 l 0.028,-0.14 h 0.727 v 3.148 h -0.704 l -0.045,-0.11 c -0.12,-0.292 -0.212,-0.473 -0.278,-0.586 -0.523,0.565 -1.178,0.85 -1.939,0.85 -0.826,0 -1.479,-0.297 -1.938,-0.878 -0.453,-0.57 -0.679,-1.181 -0.679,-1.815 0,-0.67 0.214,-1.24 0.644,-1.696 0.41,-0.451 1.085,-0.91 2.013,-1.363 0.847,-0.42 1.422,-0.774 1.707,-1.061 0.264,-0.267 0.392,-0.605 0.392,-1.032 0,-0.368 -0.124,-0.695 -0.375,-1.003 -0.243,-0.298 -0.604,-0.445 -1.112,-0.445 -1.21,0 -2.034,0.803 -2.515,2.446 l -0.033,0.131 h -0.742 v -3.327 h 0.738 l 0.037,0.126 c 0.092,0.298 0.204,0.543 0.333,0.734 0.642,-0.622 1.383,-0.935 2.201,-0.935 0.83,0 1.533,0.263 2.081,0.786 0.554,0.524 0.834,1.215 0.834,2.049 0,0.526 -0.147,1.079 -0.441,1.651"
       style="fill:#382f2d;fill-opacity:1;fill-rule:nonzero;stroke:none"
       id="path2714"
       clip-path="url(#clipPath26731)"
       transform="matrix(0.35277777,0,0,-0.35277777,-52.410404,174.03153)" />
    <path
       d="m 571.356,281.708 c -1.975,0 -3.85,0 -5.826,-0.153 -0.055,0 -0.102,0.049 -0.211,0.049 -0.875,0.104 -4.625,-0.049 -5.297,-0.462 -0.52,0.359 -0.363,1.192 -0.572,1.815 -0.104,0.884 0.883,0.574 1.351,0.776 0.569,-0.364 2.549,-0.307 4.518,-0.202 2.133,0.154 4.266,0.468 4.635,0.468 0.408,0.413 1.091,0.2 1.402,-0.266 0,-0.672 0.518,-1.399 0,-2.025 m -1.197,-4.574 c -1.041,0 -1.821,-0.783 -2.858,-0.881 -0.105,-0.108 -1.039,-0.212 -1.982,-0.212 -0.932,0 -1.865,0.055 -2.02,0.212 -1.093,-0.417 -1.873,0.471 -2.605,1.247 -0.102,0.62 -0.777,1.658 -0.672,2.338 1.457,0.569 3.586,0.1 5.297,0.261 0.418,0.051 0.783,0.101 1.094,0.211 0.994,-0.524 4.785,-0.052 5.146,0 -0.361,-0.987 0.057,-3.127 -1.4,-3.176 m -9.203,10.762 c 1.353,-0.052 2.804,0.264 4.363,0.153 h 0.109 c 1.768,-0.102 3.744,0.052 5.459,-0.051 0.106,-0.154 0.207,-0.364 0.36,-0.517 0.162,-0.628 0.054,-1.558 0.109,-2.237 -0.729,-0.314 -1.51,0.106 -2.184,0.16 -0.675,0 -2.339,-0.16 -3.853,-0.314 -1.192,-0.108 -2.281,-0.16 -2.545,-0.056 -0.623,-0.308 -1.348,0.102 -2.08,-0.26 -0.361,0.316 -0.932,-0.362 -1.244,0.156 -0.469,1.307 0.672,2.285 1.506,2.966 m 10.966,0.935 c -0.675,0.783 -1.763,0.993 -2.75,0.677 -1.3,0.158 -2.599,0.106 -3.853,0.106 h -1.865 c -0.782,-0.263 -3.067,0 -4.108,-0.316 -1.349,-1.508 -2.031,-3.848 -1.4,-5.872 -0.631,-1.978 0.515,-6.553 1.922,-8.114 0.254,-0.048 0.672,-0.777 1.767,-0.777 0.414,-0.159 0.674,-0.26 0.623,-1.246 -0.623,-1.512 -0.832,-3.171 -1.252,-4.578 -0.466,-0.881 -0.832,-2.336 -1.402,-2.962 -0.102,-0.52 -0.205,-1.246 0.158,-1.707 0.311,-0.056 0.469,0.248 0.676,0.248 1.502,2.341 2.131,5.099 2.703,7.802 0.313,0.785 0.051,1.14 0.678,1.772 0.152,0.257 0.779,0.462 1.5,0.512 0.943,0.106 2.088,0 2.658,-0.512 0.672,-2.248 0.774,-4.633 1.869,-6.714 0.828,-1.04 0.729,-2.805 2.186,-3.164 0.312,0.152 -0.209,0.304 0,0.517 0.467,1.664 -0.785,2.91 -1.305,4.26 -0.414,1.454 -0.67,3.071 -1.142,4.469 -0.1,0.632 -0.364,1.512 0.472,1.873 0.731,0.31 1.66,0.571 1.975,1.46 0.777,0.935 0.674,2.593 0.982,3.745 0.53,1.138 0.53,2.594 0.467,3.788 -0.203,1.612 0.313,4.062 -1.559,4.733"
       style="fill:#c20430;fill-opacity:1;fill-rule:nonzero;stroke:none"
       id="path2718"
       clip-path="url(#clipPath27076)"
       transform="matrix(0.35277777,0,0,-0.35277777,-52.410404,174.03153)" />
    <path
       d="m 567.2446,292.834 c -0.885,0.617 0.162,1.874 0,2.651 0.262,1.348 4.314,0.938 5.461,0.938 0.984,-0.257 2.025,0 3.117,-0.257 0.418,0.202 1.305,-0.059 1.352,0.567 -0.311,0.832 -1.141,0.779 -1.817,0.939 -2.81,-0.107 -5.666,-0.056 -8.58,-0.16 h -1.459 c -3.113,-0.05 -6.232,-0.105 -9.189,0.26 -0.578,-0.26 -1.67,-0.31 -1.569,-1.251 0.108,-0.049 0.211,-0.098 0.309,-0.098 0.318,-0.209 0.939,-0.108 1.152,-0.108 2.336,-0.466 6.598,0.157 8.838,-0.149 0.203,-0.423 0.459,-0.841 0.412,-1.356 0.047,-0.572 0.047,-1.664 -0.412,-1.976 -1.51,0.155 -6.656,0.415 -8.219,-0.311 -1.302,0.201 -2.912,0.101 -3.949,-0.367 -0.211,-0.47 -0.051,-1.087 0.467,-1.249 1.301,-0.153 4.731,0.577 6.445,0.42 1.352,0.359 3.899,0 5.715,-0.05 0.678,0 1.254,0.05 1.668,0.158 1.51,0.251 9.102,-0.264 10.291,0 0.26,0.204 0.416,0.461 0.315,0.826 -0.26,0.623 -8.58,0.828 -10.348,0.573"
       style="fill:#c20430;fill-opacity:1;fill-rule:nonzero;stroke:none"
       id="path2722"
       clip-path="url(#clipPath26941)"
       transform="matrix(0.35277777,0,0,-0.35277777,-52.410404,174.03153)" />
    <path
       d="m 593.5122,294.0112 c 0,-0.244 0.057,-0.607 0.178,-0.963 0.121,-0.365 0.179,-0.666 0.304,-1.032 0.061,-0.299 0.184,-0.545 0.237,-0.79 0.187,-0.178 0.429,-0.3 0.728,-0.477 0.244,-0.125 0.61,-0.245 1.022,-0.306 0.369,-0.058 0.734,-0.058 1.033,-0.122 0.365,0 0.602,-0.058 0.844,-0.117 v -0.188 -0.29 c 0,-0.123 0.064,-0.245 0.064,-0.306 0.061,-0.128 0.061,-0.182 0.125,-0.243 0.119,-0.121 0.235,-0.184 0.358,-0.302 l 0.123,0.059 0.668,0.243 c 0.056,0.484 0.121,0.906 0.179,1.385 0.125,-0.058 0.237,-0.119 0.356,-0.119 0.185,-0.058 0.371,-0.058 0.613,0 0.242,0 0.477,0.061 0.664,0.061 0.182,0.058 0.359,0.058 0.481,0.058 0.302,0 0.613,0.247 0.968,0.611 0.36,0.357 0.662,1.02 0.907,1.875 0.306,0.846 0.421,1.631 0.361,2.295 0,0.724 -0.055,1.275 -0.123,1.689 -0.119,0.125 -0.176,0.245 -0.238,0.305 -0.057,0.063 -0.12,0.12 -0.182,0.12 -0.121,0.059 -0.182,0.059 -0.301,0 -0.064,0 -0.181,-0.057 -0.244,-0.057 -0.061,0 -0.121,-0.063 -0.18,-0.063 -0.064,-0.18 -0.179,-0.422 -0.236,-0.66 -0.064,-0.245 -0.119,-0.428 -0.189,-0.673 0.07,-0.362 0.125,-0.661 0.189,-1.028 -0.064,-0.479 -0.189,-0.846 -0.373,-1.267 -0.906,-1.992 -1.746,-1.327 -2.652,-1.026 v 4.654 c -0.061,0.063 -0.182,0.12 -0.311,0.12 -0.057,0.059 -0.178,0.059 -0.357,0.059 v -0.059 c -0.174,0 -0.305,-0.057 -0.422,-0.057 -0.123,0 -0.184,-0.063 -0.248,-0.063 -0.055,-0.18 -0.055,-0.485 -0.117,-0.849 0,-0.303 -0.063,-0.719 -0.063,-1.214 -0.062,-0.472 -0.119,-0.899 -0.119,-1.321 -0.057,-0.365 -0.057,-1.27 -0.119,-1.515 -0.791,-0.481 -1.938,-0.663 -2.422,1.456 0,0.174 -0.059,0.295 -0.059,0.418 v 2.365 c -0.183,0.238 -0.365,0.48 -0.541,0.66 h -0.24 -0.309 -0.3 -0.119 v -0.66 -0.428 c -0.061,-0.182 -0.061,-0.364 -0.061,-0.607 v -0.599 c 0,-0.123 0.061,-0.302 0.061,-0.43 0,-0.116 0,-0.365 0.062,-0.602"
       style="fill:#c20430;fill-opacity:1;fill-rule:nonzero;stroke:none"
       id="path2726"
       clip-path="url(#clipPath27181)"
       transform="matrix(0.35277777,0,0,-0.35277777,-52.410404,174.03153)" />
    <path
       d="m 588.731,276.7812 h -0.18 -0.119 -0.18 c -0.062,0 -0.119,0 -0.246,-0.056 -0.119,-0.064 -0.179,-0.123 -0.244,-0.251 -0.054,-0.117 -0.117,-0.18 -0.117,-0.297 0,-0.246 -0.06,-0.482 -0.119,-0.786 -0.178,-1.088 -0.424,-2.176 -0.846,-3.269 -0.246,-0.662 -0.484,-1.269 -0.851,-1.812 -0.366,-0.721 -0.901,-1.569 -1.508,-2.238 -0.604,-0.66 -1.574,-1.209 -2.057,-1.506 -0.547,-0.309 -0.963,-0.548 -1.271,-0.666 -0.063,-0.117 -0.18,-0.243 -0.241,-0.302 v -0.665 -0.611 c 0.241,-0.115 0.428,-0.24 0.608,-0.297 0.18,0 0.303,0 0.543,0.119 0.24,0.063 0.482,0.178 0.779,0.421 0.369,0.184 0.613,0.368 0.906,0.547 0.248,0.182 0.426,0.36 0.61,0.486 0.42,0.302 0.97,1.147 1.512,1.753 0.363,0.361 0.664,0.721 0.97,1.089 0.24,0.361 0.541,0.723 0.781,1.203 0.545,1.155 0.909,2.119 1.149,3.091 0.183,0.908 0.365,1.625 0.428,2.171 v 1.569 c -0.063,0.068 -0.063,0.128 -0.121,0.187 -0.069,0.064 -0.124,0.064 -0.186,0.12"
       style="fill:#c20430;fill-opacity:1;fill-rule:nonzero;stroke:none"
       id="path2730"
       clip-path="url(#clipPath26881)"
       transform="matrix(0.35277777,0,0,-0.35277777,-52.410404,174.03153)" />
    <path
       d="m 598.5278,278.0542 c 0.547,0 1.084,0.058 1.512,0.058 0.724,0.062 1.328,0.118 1.873,0.237 3.562,1.216 -0.065,1.697 -1.752,1.094 h -1.633 -0.912 c -1.024,0 -1.813,0.056 -2.533,0.056 -0.725,0.066 -1.151,0.066 -1.633,0.066 0,0.114 0.062,0.359 0.062,0.602 0.057,0.303 -0.123,1.577 -0.123,1.929 0.061,0.37 0.123,0.673 0.123,0.916 0.057,0.236 0.057,0.42 0.057,0.547 0,0.717 0.121,1.263 -0.057,1.561 -0.248,0.485 -0.91,0.792 -1.211,0.73 -0.242,-0.056 -0.544,-0.537 -0.726,-0.966 -0.121,-0.423 0,-1.031 0.057,-1.636 l 0.244,-3.683 c -1.45,0 -3.444,-0.308 -5.196,-0.242 -0.306,0.056 -0.543,0.056 -0.851,0.056 -0.785,0.12 -2.35,0.3 -3.147,0.12 -0.965,-0.242 -1.752,-0.783 0.065,-1.325 0.304,0 0.605,-0.12 1.148,-0.12 h 1.815 0.97 0.965 1.393 2.594 c -0.057,-4.059 0.062,-8.107 0,-12.154 v -0.243 -0.424 c 0,-0.179 0.062,-0.363 0.062,-0.539 0.063,-0.129 0.063,-0.248 0.121,-0.372 0.061,-0.059 0.123,-0.115 0.244,-0.178 0.063,-0.062 0.115,-0.062 0.242,-0.119 h 0.301 0.182 c 0.183,0.057 0.48,0.182 0.605,0.297 v 0.243 0.368 0.426 0.239 12.456 c 0.481,0.058 0.789,0.058 1.51,0.058 h 2.604 c 0.355,-0.058 0.72,-0.058 1.025,-0.058"
       style="fill:#c20430;fill-opacity:1;fill-rule:nonzero;stroke:none"
       id="path2734"
       clip-path="url(#clipPath27016)"
       transform="matrix(0.35277777,0,0,-0.35277777,-52.410404,174.03153)" />
    <path
       d="m 582.6274,283.6704 c 0.359,-0.054 0.906,0.127 1.387,0.362 0.369,0.131 0.666,0.19 0.967,0.305 v 0.061 c 0.609,0.183 1.156,0.424 1.699,0.666 0.668,0.305 1.326,0.602 2.051,0.786 1.212,0.482 2.48,1.33 3.871,1.514 1.025,0.115 3.201,-0.965 4.113,-1.389 0.607,-0.309 1.207,-0.606 1.812,-0.911 0.848,-0.364 1.633,-0.789 2.481,-1.211 0.547,-0.237 1.023,-0.237 1.449,-0.294 0.424,0 1.025,0 1.268,0.057 0,2.114 -0.055,1.448 -2.477,2.412 -0.781,0.371 -1.693,0.908 -2.721,1.273 -0.06,0.063 -0.173,0.124 -0.304,0.124 -1.082,0.418 -2.047,0.78 -2.897,1.086 -0.849,0.364 -2.178,0.666 -2.724,0.97 -0.606,-0.189 -1.028,-0.425 -1.993,-0.791 -0.97,-0.3 -1.816,-0.723 -3.084,-1.265 -0.242,-0.124 -0.546,-0.245 -0.845,-0.362 -0.914,-0.312 -1.699,-0.664 -2.422,-0.914 -0.906,-0.355 -1.631,-0.597 -2.299,-0.78 -0.119,-0.185 -0.242,-0.425 -0.359,-0.669 -0.061,-0.903 -0.42,-0.79 1.027,-1.03"
       style="fill:#c20430;fill-opacity:1;fill-rule:nonzero;stroke:none"
       id="path2738"
       clip-path="url(#clipPath27481)"
       transform="matrix(0.35277777,0,0,-0.35277777,-52.410404,174.03153)" />
    <path
       d="m 603.1821,265.5981 c -1.814,0.728 -2.838,1.569 -3.627,3.565 -0.18,0.48 -0.48,0.97 -0.848,1.574 -0.06,0.116 -0.115,0.238 -0.179,0.361 -0.246,0.49 -0.481,1.083 -0.725,1.817 -0.244,0.843 -0.424,1.507 -0.603,2.109 -0.122,0.61 -0.247,1.093 -0.309,1.45 -0.115,0.068 -0.176,0.128 -0.242,0.187 -0.115,0.064 -0.178,0.064 -0.299,0.12 h -0.244 -0.236 c -0.116,-0.307 -0.301,-0.604 -0.43,-0.906 v -0.18 -0.304 -0.303 -0.183 c 0.129,-0.42 0.246,-0.91 0.363,-1.51 0.178,-0.661 0.547,-1.511 0.846,-2.357 0.304,-0.788 0.492,-1.395 0.853,-2.055 0.356,-0.611 0.664,-1.15 0.965,-1.571 l 0.061,-0.061 c 0.3,-0.305 0.607,-0.666 0.972,-1.094 0.356,-0.474 0.844,-0.898 1.442,-1.324 0.547,-0.487 1.031,-0.726 1.451,-0.851 0.424,-0.117 0.789,-0.117 1.09,-0.057 0,0.057 0,0.119 0.064,0.182 0,0.057 0.055,0.115 0.055,0.239 0.068,0.058 0.123,0.119 0.184,0.119 0.062,0.065 0.062,0.065 0.123,0.065 0,0.24 -0.483,0.843 -0.727,0.968"
       style="fill:#c20430;fill-opacity:1;fill-rule:nonzero;stroke:none"
       id="path2742"
       clip-path="url(#clipPath27226)"
       transform="matrix(0.35277777,0,0,-0.35277777,-52.410404,174.03153)" />
    <path
       d="m 583.6489,290.8096 c 0.549,-0.247 0.969,-0.305 1.395,-0.305 0.365,0.058 0.722,0.058 0.964,0.058 0.065,-0.602 0.129,-1.143 0.188,-1.687 h 0.238 0.246 0.055 c 0.185,0.059 0.244,0.118 0.367,0.118 0.119,0.063 0.182,0.119 0.246,0.184 v 0.303 0.416 c 0.051,0.12 0.051,0.308 0.114,0.424 0,0.123 0.064,0.184 0.064,0.242 0.236,0.061 0.48,0.061 0.844,0.061 0.304,0 0.73,0.064 1.211,0.186 0.42,0.116 0.845,0.363 1.211,0.662 0.361,0.365 0.662,0.721 0.964,1.153 v 0.964 1.332 c 0,0.486 0,0.906 -0.062,1.265 -0.063,0.303 -0.063,0.613 -0.18,0.847 -0.06,0.125 -0.123,0.245 -0.181,0.304 h -0.541 c -0.127,-0.059 -0.245,-0.179 -0.366,-0.304 v -2.721 c -0.246,-0.358 -0.425,-0.723 -0.601,-1.026 -1.215,-1.51 -1.031,-0.3 -2.299,-0.362 v 1.03 c -0.064,0.421 -0.064,0.849 -0.064,1.32 -0.063,0.495 -0.063,0.912 -0.114,1.215 v 0.848 c -0.127,0.063 -0.187,0.121 -0.369,0.121 -0.059,0.059 -0.182,0.059 -0.299,0.059 0,0 -0.064,0 -0.064,-0.059 -0.182,0 -0.299,-0.058 -0.36,-0.058 -0.119,0 -0.183,-0.063 -0.248,-0.063 0,-0.179 0,-0.485 -0.052,-0.787 0,-0.301 0,-0.665 -0.065,-1.084 0,-0.367 -0.062,-0.724 -0.062,-1.03 v -0.847 c 0.062,-0.184 0.127,-0.42 0.179,-0.665 -1.39,-0.731 -2.054,-0.784 -2.656,1.088 -0.119,0.3 -0.301,0.668 -0.365,1.21 0,0.421 -0.061,0.901 -0.121,1.267 -0.059,0.363 -0.184,0.669 -0.299,0.848 -0.061,0 -0.061,0.063 -0.117,0.063 -0.065,0 -0.186,0.058 -0.242,0.058 -0.123,0.059 -0.188,0.059 -0.248,0 -0.057,0 -0.12,-0.058 -0.184,-0.121 0,-0.119 -0.059,-0.359 -0.059,-0.538 -0.054,-0.249 -0.054,-0.49 -0.054,-0.794 -0.063,-0.301 -0.063,-0.539 -0.063,-0.783 v -0.609 -0.177 -0.306 -0.295 -0.246 c 0.176,-0.541 0.485,-1.091 0.785,-1.631 0.362,-0.544 0.789,-0.909 1.264,-1.148"
       style="fill:#c20430;fill-opacity:1;fill-rule:nonzero;stroke:none"
       id="path2746"
       clip-path="url(#clipPath26746)"
       transform="matrix(0.35277777,0,0,-0.35277777,-52.410404,174.03153)" />
    <path
       d="m 310.4644,265.2046 c -3.282,0 -5.812,1.353 -7.573,4.058 -1.77,2.709 -2.652,6.542 -2.652,11.504 0,4.918 0.959,8.786 2.868,11.616 1.915,2.821 4.367,4.241 7.357,4.241 3.334,0 5.934,-1.342 7.802,-4.02 1.863,-2.676 2.791,-6.528 2.791,-11.542 0,-10.57 -3.529,-15.857 -10.593,-15.857 m 7.027,31.679 c -1.985,0.805 -4.132,1.211 -6.435,1.211 -5.007,0 -9.25,-1.643 -12.726,-4.936 -3.488,-3.297 -5.231,-7.377 -5.231,-12.246 0,-5.011 1.68,-9.128 5.042,-12.347 3.363,-3.219 7.593,-4.832 12.692,-4.832 4.754,0 8.827,1.721 12.214,5.164 1.665,1.721 2.945,3.636 3.825,5.748 0.885,2.112 1.326,4.33 1.326,6.636 0,4.426 -1.765,8.411 -5.297,11.948 -1.621,1.62 -3.42,2.839 -5.41,3.654"
       style="fill:#382f2d;fill-opacity:1;fill-rule:nonzero;stroke:none"
       id="path2750"
       clip-path="url(#clipPath27496)"
       transform="matrix(0.35277777,0,0,-0.35277777,-52.410404,174.03153)" />
    <path
       d="m 370.5371,266.3823 c -0.958,0.198 -1.654,0.391 -2.099,0.589 -0.831,0.391 -1.333,0.846 -1.504,1.364 -0.171,0.51 -0.257,1.46 -0.257,2.831 v 17.138 c 0,3.192 -0.937,5.618 -2.798,7.291 -1.865,1.661 -4.56,2.499 -8.094,2.499 -5.197,0 -9.247,-2.328 -12.142,-6.985 -0.094,1.273 -0.215,2.794 -0.361,4.56 -0.148,1.762 -0.59,2.649 -1.328,2.649 -0.146,0 -0.896,-0.25 -2.244,-0.737 -1.351,-0.492 -2.927,-0.925 -4.742,-1.286 -1.823,-0.372 -2.728,-0.753 -2.728,-1.141 0,-0.345 0.489,-0.58 1.472,-0.704 0.984,-0.118 1.67,-0.278 2.064,-0.476 0.73,-0.395 1.216,-0.954 1.435,-1.688 0.216,-0.741 0.331,-1.896 0.331,-3.461 v -17.659 c 0,-1.326 -0.097,-2.269 -0.293,-2.831 -0.198,-0.563 -0.691,-1.018 -1.473,-1.364 -0.394,-0.198 -1.08,-0.391 -2.064,-0.589 -0.983,-0.19 -1.472,-0.488 -1.472,-0.879 0,-0.544 0.37,-0.812 1.106,-0.812 1.178,0.101 2.255,0.193 3.233,0.298 0.981,0.096 2.381,0.141 4.197,0.141 0.49,0 1.796,-0.071 3.9,-0.219 2.109,-0.145 3.261,-0.22 3.462,-0.22 0.781,0 1.17,0.22 1.17,0.663 0,0.488 -0.474,0.838 -1.431,1.028 -0.957,0.198 -1.654,0.391 -2.097,0.589 -0.833,0.391 -1.333,0.846 -1.507,1.364 -0.171,0.51 -0.261,1.46 -0.261,2.831 v 13.907 c 0,3.041 0.915,5.562 2.725,7.575 1.813,2.011 3.998,3.021 6.546,3.021 4.609,0 6.921,-2.6 6.921,-7.797 v -16.706 c 0,-1.326 -0.103,-2.269 -0.293,-2.831 -0.202,-0.563 -0.692,-1.018 -1.478,-1.364 -0.389,-0.198 -1.078,-0.391 -2.059,-0.589 -0.979,-0.19 -1.469,-0.488 -1.469,-0.879 0,-0.544 0.389,-0.812 1.175,-0.812 1.18,0.101 2.243,0.193 3.202,0.298 0.96,0.096 2.342,0.141 4.156,0.141 0.441,0 1.74,-0.071 3.9,-0.219 2.158,-0.145 3.331,-0.22 3.533,-0.22 0.734,0 1.1,0.22 1.1,0.663 0,0.488 -0.474,0.838 -1.434,1.028"
       style="fill:#382f2d;fill-opacity:1;fill-rule:nonzero;stroke:none"
       id="path2754"
       clip-path="url(#clipPath27286)"
       transform="matrix(0.35277777,0,0,-0.35277777,-52.410404,174.03153)" />
    <path
       d="m 526.7856,272.9878 c 0,-1.632 -0.92,-3.118 -2.756,-4.448 -1.842,-1.338 -3.769,-2.009 -5.783,-2.009 -1.52,0 -2.719,0.496 -3.596,1.483 -0.888,0.988 -1.328,2.329 -1.328,4.013 0,4.053 4.49,7.838 13.463,11.352 z m 11.699,-4.687 c -0.148,0 -0.553,-0.246 -1.215,-0.738 -0.662,-0.491 -1.261,-0.737 -1.804,-0.737 -1.619,0 -2.422,1.323 -2.422,3.983 v 18.731 c 0,5.652 -4.219,8.484 -12.658,8.484 -3.971,0 -7.088,-0.593 -9.34,-1.77 -2.266,-1.178 -3.391,-2.622 -3.391,-4.34 0,-1.815 0.86,-2.723 2.574,-2.723 1.176,0 1.991,0.342 2.432,1.031 0.248,0.396 0.484,1.323 0.734,2.799 0.293,2.354 2.403,3.528 6.329,3.528 4.703,0 7.062,-1.919 7.062,-5.757 v -5.841 c -13.537,-4.933 -20.305,-9.757 -20.305,-14.489 0,-2.067 0.672,-3.707 2.02,-4.918 1.351,-1.207 3.174,-1.81 5.484,-1.81 4.756,0 8.949,1.74 12.58,5.227 0.344,-1.591 1.104,-2.861 2.285,-3.808 1.174,-0.942 2.569,-1.419 4.194,-1.419 1.562,0 2.976,0.477 4.226,1.423 1.252,0.947 1.873,1.77 1.873,2.475 0,0.442 -0.218,0.669 -0.658,0.669"
       style="fill:#382f2d;fill-opacity:1;fill-rule:nonzero;stroke:none"
       id="path2758"
       clip-path="url(#clipPath26761)"
       transform="matrix(0.35277777,0,0,-0.35277777,-52.410404,174.03153)" />
    <path
       d="m 396.4727,278.5781 c -1.322,-1.77 -3.163,-2.654 -5.521,-2.654 -2.25,0 -4.031,0.922 -5.335,2.766 -1.3,1.848 -1.944,4.394 -1.944,7.646 0,3.097 0.675,5.583 2.023,7.458 1.35,1.871 3.051,2.803 5.115,2.803 2.398,0 4.277,-0.898 5.626,-2.696 1.351,-1.795 2.022,-4.368 2.022,-7.71 0,-3.303 -0.663,-5.842 -1.986,-7.613 m 13.092,23.038 -3.293,2.168 c -0.969,-0.809 -1.892,-1.519 -2.763,-2.135 -0.876,-0.61 -1.766,-1.177 -2.684,-1.705 -0.942,-0.562 -1.926,-1.075 -2.936,-1.55 -0.033,-0.015 -0.063,-0.029 -0.101,-0.045 -0.714,-0.286 -2.049,-0.669 -3.769,-0.5 -0.257,0.043 -0.531,0.084 -0.795,0.114 -0.007,0 -0.011,0 -0.015,0.003 v -0.003 c -0.641,0.078 -1.287,0.111 -1.959,0.111 -3.971,0 -7.26,-1.133 -9.863,-3.403 -2.598,-2.266 -3.898,-5.127 -3.898,-8.574 0,-2.464 0.707,-4.637 2.134,-6.509 1.427,-1.871 3.413,-3.273 5.961,-4.215 -4.563,-0.878 -6.839,-3.091 -6.839,-6.628 0,-2.405 1.028,-4.136 3.088,-5.2 2.056,-1.054 5.174,-1.581 9.343,-1.581 4.611,0 7.876,-0.479 9.783,-1.438 1.915,-0.961 2.87,-2.869 2.87,-5.727 0,-2.654 -0.977,-4.747 -2.941,-6.273 -1.962,-1.526 -4.708,-2.288 -8.237,-2.288 -3.685,0 -6.555,0.691 -8.612,2.064 -2.061,1.375 -3.093,3.226 -3.093,5.542 0,1.618 0.324,2.926 0.966,3.914 0.628,0.983 1.394,1.696 2.275,2.138 0,0.693 -0.836,1.036 -2.5,1.036 -1.424,0 -2.705,-0.617 -3.831,-1.842 -1.128,-1.243 -1.687,-2.666 -1.687,-4.291 0,-3.051 1.432,-5.548 4.304,-7.492 2.864,-1.944 6.681,-2.917 11.44,-2.917 5.247,0 9.355,1.144 12.321,3.441 2.968,2.28 4.457,5.395 4.457,9.332 0,4.091 -1.304,7.027 -3.905,8.825 -2.602,1.802 -6.747,2.694 -12.433,2.694 -6.719,0 -10.078,0.798 -10.078,2.41 0,1.257 0.738,2.134 2.205,2.624 1.47,0.486 3.753,0.734 6.842,0.734 4.465,0 7.819,0.983 10.082,2.958 2.254,1.977 3.382,4.797 3.382,8.45 0,2.539 -0.86,5.008 -2.563,7.403 -0.32,0.43 -0.768,0.958 -1.319,1.421 l -0.016,-0.008 c -0.969,0.821 -2.011,1.485 -3.123,2.005 0.34,0.082 0.668,0.152 0.974,0.232 1.088,0.269 2.095,0.539 3.044,0.818 0.968,0.274 1.938,0.591 2.911,0.958 0.971,0.359 2.067,0.808 3.288,1.34 l 1.122,0.163 c 0.555,0.082 0.871,0.271 0.958,0.539 0.081,0.284 -0.087,0.575 -0.497,0.887"
       style="fill:#382f2d;fill-opacity:1;fill-rule:nonzero;stroke:none"
       id="path2762"
       clip-path="url(#clipPath27136)"
       transform="matrix(0.35277777,0,0,-0.35277777,-52.410404,174.03153)" />
    <path
       d="m 455.2759,270.1973 c -0.076,-0.093 -0.152,-0.171 -0.227,-0.261 -1.14,-1.225 -4.169,-3.889 -9.044,-3.911 -3.284,0.097 -5.868,1.371 -7.754,3.822 -1.957,2.559 -2.936,6.173 -2.936,10.845 0,5.015 0.953,8.901 2.873,11.654 1.904,2.753 4.483,4.128 7.719,4.128 1.621,0 2.75,-0.273 3.387,-0.805 0.394,-0.346 0.88,-1.229 1.468,-2.649 0.592,-1.423 1.571,-2.135 2.948,-2.135 1.564,0 2.349,0.783 2.349,2.358 0,1.368 -0.859,2.523 -2.568,3.454 -1.723,0.932 -3.998,1.397 -6.85,1.397 -5.197,0 -9.441,-1.497 -12.729,-4.497 -3.974,-3.591 -5.955,-7.939 -5.955,-13.049 0,-5.318 1.493,-9.434 4.486,-12.385 2.991,-2.95 7.136,-4.43 12.437,-4.43 0.564,0 1.101,0.026 1.623,0.056 l -0.004,-0.004 c 7.765,0.294 9.56,6.137 9.56,6.137 l -0.496,0.615 c -0.1,-0.12 -0.193,-0.224 -0.287,-0.34"
       style="fill:#382f2d;fill-opacity:1;fill-rule:nonzero;stroke:none"
       id="path2766"
       clip-path="url(#clipPath27511)"
       transform="matrix(0.35277777,0,0,-0.35277777,-52.410404,174.03153)" />
    <path
       d="m 499.9673,266.4048 c -0.953,0.19 -1.652,0.391 -2.1,0.585 -0.83,0.395 -1.332,0.845 -1.504,1.355 -0.175,0.519 -0.253,1.465 -0.253,2.84 v 17.134 c 0,3.182 -0.928,5.585 -2.776,7.206 -1.846,1.612 -4.56,2.425 -8.158,2.425 -5.066,0 -9.004,-2.034 -11.809,-6.11 v 24.798 c 0,0.781 -0.261,1.173 -0.796,1.173 -1.172,-0.296 -2.344,-0.559 -3.516,-0.809 -0.516,-0.108 -1.109,-0.22 -1.768,-0.339 l -6.119,-0.973 c -0.023,-0.007 -0.404,-0.084 -0.178,-0.334 l 1.411,-1.524 c 3.103,0.376 4.054,-0.831 4.343,-1.752 0.096,-0.532 0.153,-1.266 0.153,-2.209 v -38.686 c 0,-1.326 -0.102,-2.273 -0.293,-2.84 -0.203,-0.558 -0.692,-1.009 -1.473,-1.355 -0.393,-0.194 -1.084,-0.395 -2.057,-0.585 -0.988,-0.201 -1.484,-0.495 -1.484,-0.887 0,-0.539 0.404,-0.8 1.186,-0.8 1.179,0.085 2.246,0.182 3.199,0.275 0.963,0.093 2.344,0.138 4.154,0.138 0.449,0 1.746,-0.067 3.904,-0.212 2.161,-0.138 3.336,-0.201 3.528,-0.201 0.742,0 1.113,0.212 1.113,0.651 0,0.492 -0.48,0.835 -1.443,1.036 -0.957,0.19 -1.655,0.391 -2.092,0.585 -0.844,0.395 -1.342,0.845 -1.51,1.355 -0.172,0.519 -0.262,1.465 -0.262,2.84 v 13.893 c 0,3.036 0.924,5.566 2.766,7.574 1.836,2.008 4.029,3.018 6.584,3.018 4.607,0 6.916,-2.601 6.916,-7.794 v -16.691 c 0,-1.326 -0.104,-2.273 -0.301,-2.84 -0.193,-0.558 -0.681,-1.009 -1.469,-1.355 -0.39,-0.194 -1.076,-0.395 -2.058,-0.585 -0.981,-0.201 -1.467,-0.495 -1.467,-0.887 0,-0.539 0.363,-0.8 1.1,-0.8 1.179,0.085 2.256,0.182 3.236,0.275 0.98,0.093 2.375,0.138 4.193,0.138 0.489,0 1.788,-0.067 3.905,-0.212 2.103,-0.138 3.259,-0.201 3.451,-0.201 0.785,0 1.181,0.212 1.181,0.651 0,0.492 -0.476,0.835 -1.437,1.036"
       style="fill:#382f2d;fill-opacity:1;fill-rule:nonzero;stroke:none"
       id="path2770"
       clip-path="url(#clipPath27091)"
       transform="matrix(0.35277777,0,0,-0.35277777,-52.410404,174.03153)" />
    <path
       d="m 288.3208,285.5884 c -0.445,0 -3.289,-0.15 -8.533,-0.44 -1.966,0 -3.647,0.044 -5.045,0.148 -1.393,0.095 -2.537,0.191 -3.419,0.292 -1.129,0 -1.693,-0.272 -1.693,-0.809 0,-0.44 0.623,-0.767 1.879,-0.984 1.252,-0.223 1.997,-0.383 2.243,-0.48 1.717,-0.633 2.576,-2.488 2.576,-5.57 0,-4.158 -1.03,-7.213 -3.087,-9.165 -2.07,-1.956 -5.303,-2.931 -9.715,-2.931 -5.254,0 -9.386,2.044 -12.396,6.135 -3.017,4.087 -4.527,9.828 -4.527,17.228 0,8.174 1.527,14.361 4.599,18.549 3.06,4.188 7.562,6.281 13.504,6.281 6.862,0 11.524,-3.431 13.975,-10.301 0.241,-0.592 0.462,-1.315 0.659,-2.168 0.197,-0.865 0.469,-1.293 0.813,-1.293 0.444,0 0.66,0.295 0.66,0.883 l 0.319,7.809 0.253,5.503 -1.389,0.435 c -0.209,-1.453 -0.544,-2.22 -0.853,-2.63 -0.09,-0.104 -0.511,-0.488 -1.338,-0.2 -2.034,0.759 -4.048,1.53 -6.043,2.327 -2.448,0.738 -5.171,1.103 -8.163,1.103 -7.701,0 -13.971,-2.533 -18.799,-7.6 -4.836,-5.074 -7.246,-11.649 -7.246,-19.724 0,-6.959 2.206,-12.667 6.62,-17.122 4.658,-4.754 10.596,-7.131 17.806,-7.131 3.435,0 6.738,0.656 9.932,1.968 2.301,1.11 4.612,2.253 6.914,3.419 0.738,0.336 1.584,0.608 2.545,0.801 0.953,0.187 1.993,0.291 3.121,0.291 -0.146,1.125 -0.246,2.061 -0.295,2.794 -0.048,0.734 -0.073,1.766 -0.073,3.088 v 0.813 c 0,1.863 0.112,3.226 0.331,4.083 0.219,0.858 0.663,1.494 1.322,1.911 0.664,0.417 1.488,0.75 2.471,0.995 0.98,0.246 1.468,0.563 1.468,0.954 0,0.495 -0.466,0.738 -1.396,0.738"
       style="fill:#382f2d;fill-opacity:1;fill-rule:nonzero;stroke:none"
       id="path2774"
       clip-path="url(#clipPath27241)"
       transform="matrix(0.35277777,0,0,-0.35277777,-52.410404,174.03153)" />
  </g>
</svg>
